<svg xmlns="http://www.w3.org/2000/svg" viewBox="0 0 512 512" enableBackground="new 0 0 512 512" xmlSpace="preserve">
    <path  fill="#A1045A" d="M448,320h-64v-64h64V320z M336,80c0,11.938-2.625,23.281-7.313,33.438L256,256l-72.688-142.563
        C178.625,103.281,176,91.938,176,80c0-44.188,35.813-80,80-80S336,35.813,336,80z M304,80c0-26.5-21.5-48-48-48s-48,21.5-48,48
        s21.5,48,48,48S304,106.5,304,80z M512,128v320c0,35.344-28.656,64-64,64H64c-35.344,0-64-28.656-64-64V128
        c0-35.344,28.656-64,64-64h81.625C144.875,69.25,144,74.5,144,80c0,5.406,1,10.688,1.75,16H128v96h59.438l16.313,32H128v128h192V224
        h-11.781L352,138.125V192h128v-64c0-17.656-14.344-32-32-32h-81.719C367.063,90.688,368,85.438,368,80c0-5.5-0.844-10.75-1.625-16
        H448C483.344,64,512,92.656,512,128z M96,384H32v64c0,17.656,14.375,32,32,32h32V384z M96,224H32v128h64V224z M96,96H64
        c-17.625,0-32,14.344-32,32v64h64V96z M320,384H128v96h192V384z M480,384H352v96h96c17.656,0,32-14.344,32-32V384z M480,224H352v128
        h128V224z"/>
    </svg>
